<svg width="88" height="16" viewBox="0 0 88 16" fill="none" xmlns="http://www.w3.org/2000/svg">
<path id="Vector" d="M3.74912 12.5413C3.21686 14.0408 1.79813 15.0426 0.207031 15.0426L5.06808 1.58245C5.33654 0.839088 6.04212 0.343723 6.83247 0.343723C7.62283 0.343723 8.32841 0.83909 8.59687 1.58245L13.4579 15.0426C11.8323 15.0426 10.3845 14.0145 9.84873 12.4797L9.55715 11.6443H4.06754L3.74912 12.5413ZM6.50029 4.72728L4.81163 9.47272H8.81306L7.12357 4.72728C7.06988 4.5262 7.01032 4.32512 6.94321 4.12404C6.8761 3.92296 6.83583 3.74865 6.82241 3.60117C6.79556 3.73522 6.74858 3.90954 6.68147 4.12404C6.62779 4.32512 6.5674 4.5262 6.50029 4.72728ZM21.2301 0.343723V12.4689C21.2301 13.8903 20.0779 15.0426 18.6565 15.0426V2.9174C18.6565 1.496 19.8087 0.343723 21.2301 0.343723ZM27.7457 0.343723C27.7457 1.65416 26.6834 2.71649 25.3729 2.71649H18.8578C18.8578 1.40605 19.9201 0.343723 21.2305 0.343723H27.7457ZM26.6996 9.0303H18.8175V6.71793H24.3872C25.6643 6.71793 26.6996 7.75322 26.6996 9.0303ZM35.9944 12.4689C35.9944 13.8903 34.8421 15.0426 33.4207 15.0426V7.69317V5.95414C33.4207 2.85559 35.9326 0.343723 39.0311 0.343723C40.6929 0.343723 41.9865 0.745884 42.9118 1.5502C43.8505 2.35452 44.3194 3.48054 44.3194 4.92836C44.3194 5.90691 44.0912 6.74478 43.6357 7.4418C43.1936 8.12548 42.5368 8.64827 41.6652 9.01025L44.4603 15.0426C42.7459 15.0426 41.1898 14.0403 40.4809 12.4793L39.1519 9.55317H35.9944V12.4689ZM39.0311 2.63604C37.368 2.63604 35.9944 3.98426 35.9944 5.64738V7.28098H39.0311C39.849 7.28098 40.4857 7.0732 40.9412 6.65762C41.3967 6.24204 41.6249 5.66565 41.6249 4.92836C41.6249 4.19107 41.3967 3.62801 40.9412 3.23927C40.4857 2.83712 39.849 2.63604 39.0311 2.63604ZM51.1118 15.0426C50.4344 15.0426 49.8853 14.4935 49.8853 13.8162V6.33574C49.8853 5.6584 50.4344 5.1093 51.1118 5.1093C51.7891 5.1093 52.3382 5.6584 52.3382 6.33574V13.8162C52.3382 14.4935 51.7891 15.0426 51.1118 15.0426ZM51.0916 3.11865C50.6764 3.11865 50.3207 2.97788 50.0263 2.69636C49.7444 2.40141 49.6035 2.04623 49.6035 1.63065C49.6035 1.21507 49.7444 0.866516 50.0263 0.584988C50.3207 0.303545 50.6764 0.162779 51.0916 0.162779C51.5069 0.162779 51.8559 0.303545 52.1369 0.584988C52.4322 0.866516 52.5798 1.21507 52.5798 1.63065C52.5798 2.04623 52.4322 2.40141 52.1369 2.69636C51.8559 2.97788 51.5069 3.11865 51.0916 3.11865ZM64.8039 15.2839C63.3694 15.2839 62.1229 14.9756 61.0634 14.3589C60.0181 13.7288 59.2002 12.8508 58.6105 11.7248C58.0342 10.5853 57.7456 9.2448 57.7456 7.70319C57.7456 6.17501 58.0409 4.84119 58.6306 3.70175C59.2338 2.5623 60.0785 1.67754 61.164 1.04755C62.2504 0.417465 63.5037 0.102467 64.9247 0.102467C66.0908 0.102467 67.136 0.316879 68.0613 0.745882C68.9857 1.17488 69.7499 1.77812 70.3531 2.5556C70.6311 2.90738 70.8621 3.2904 71.0461 3.70466C71.3993 4.50002 70.716 5.29025 69.8457 5.29025C69.2166 5.29025 68.6896 4.85724 68.3549 4.32454C68.0984 3.91616 67.7659 3.57451 67.3575 3.2996C66.6738 2.81699 65.8357 2.57572 64.8442 2.57572C63.9592 2.57572 63.1815 2.78352 62.5113 3.19901C61.8544 3.61459 61.3452 4.2044 60.9828 4.96854C60.6213 5.73267 60.4401 6.6442 60.4401 7.70319C60.4401 8.72201 60.6213 9.6202 60.9828 10.3977C61.3452 11.1618 61.8544 11.7583 62.5113 12.1872C63.1815 12.6028 63.9592 12.8106 64.8442 12.8106C65.8492 12.8106 66.7073 12.5694 67.4179 12.0868C67.842 11.804 68.1831 11.4638 68.4416 11.0661C68.773 10.5562 69.2832 10.1363 69.8914 10.1363C70.7491 10.1363 71.4074 10.9282 71.0334 11.7C70.8387 12.1016 70.5986 12.4786 70.3128 12.8307C69.6963 13.6082 68.9128 14.2115 67.9606 14.6405C67.0219 15.0694 65.97 15.2839 64.8039 15.2839ZM78.136 14.2136C77.9596 14.7106 77.4894 15.0426 76.962 15.0426C76.0986 15.0426 75.497 14.1857 75.7903 13.3736L80.0486 1.58246C80.3171 0.83909 81.0226 0.343723 81.813 0.343723C82.6034 0.343723 83.3089 0.839092 83.5774 1.58246L87.8231 13.3388C88.1225 14.1678 87.5084 15.0426 86.627 15.0426C86.0861 15.0426 85.6044 14.7006 85.4262 14.1899L84.9331 12.7771C84.6963 12.0987 84.0564 11.6443 83.3379 11.6443H80.2501C79.5295 11.6443 78.887 12.098 78.646 12.7771L78.136 14.2136ZM81.4808 4.72728L80.4628 7.58794C80.1358 8.50693 80.8172 9.47272 81.7927 9.47272C82.7682 9.47272 83.4497 8.50677 83.1225 7.58773L82.1041 4.72728C82.0504 4.5262 81.99 4.32512 81.9237 4.12404C81.8952 4.03858 81.6889 4.03806 81.662 4.12404C81.6083 4.32512 81.5479 4.5262 81.4808 4.72728Z" fill="black"/>
</svg>
