<svg width="159" height="139" viewBox="0 0 159 139" fill="none" xmlns="http://www.w3.org/2000/svg">
<g id="Group 2608336">
<rect id="Rectangle 454" y="0.5" width="159" height="138" rx="8" fill="#F0FFF6"/>
<path id="Vector 408" d="M57.3285 80.951H79.2806M57.3285 90.6099H79.2806M57.3285 73.0482H68.3046M79.2806 73.0482H69.6225M68.3046 73.0482V63.3893C63.7678 62.8039 55.2211 58.9989 57.3285 48.4618C66.1093 44.247 69.1832 54.9011 69.6225 60.755C68.7439 56.95 69.4454 49.8668 79.2806 51.9742C84.1985 64.6187 74.891 64.8528 69.6225 63.3893V73.0482M68.3046 73.0482H69.6225M85.428 73.0482V88.8538H102.112M86.3061 87.9757L94.2088 78.3168L98.5992 80.951L102.112 76.5606" stroke="black" stroke-width="1.75617"/>
</g>
</svg>
