<svg width="239" height="75" viewBox="0 0 239 75" fill="none" xmlns="http://www.w3.org/2000/svg">
<g id="Group 513">
<path id="Union" fill-rule="evenodd" clip-rule="evenodd" d="M53.3987 4.12489L35.6275 8.89007C32.8214 9.64249 31.1566 12.5272 31.909 15.3333C32.6607 18.1365 35.5424 19.7996 38.3456 19.0479L56.122 14.2814C58.9266 13.5293 60.5906 10.6461 59.8386 7.84144C59.0865 5.03682 56.2033 3.37286 53.3987 4.12489ZM32.5115 32.5802C31.6442 33.3231 30.6263 33.9197 29.4828 34.3182L15.8956 39.0534C16.6236 39.3292 17.3289 39.7004 17.9945 40.1699L32.6658 50.5188C34.7649 51.9996 36.0754 54.1819 36.5036 56.5238C36.656 56.4466 36.8112 56.373 36.9694 56.3032L53.3957 49.0557C58.1571 46.9549 63.7201 49.1117 65.8209 53.8732C67.9218 58.6347 65.7649 64.1977 61.0034 66.2985L44.5721 73.5482C39.812 75.6484 34.2507 73.4922 32.1505 68.7321C31.8459 68.0418 31.6308 67.3346 31.5001 66.6236C28.4881 68.1492 24.7536 68.0012 21.8024 65.9194L7.12656 55.5672C2.87506 52.5683 1.85968 46.6906 4.85865 42.4391C5.42261 41.6396 6.08831 40.9545 6.82582 40.3889C3.98643 39.5718 1.57392 37.4353 0.527618 34.433C-1.18559 29.5171 1.4107 24.1432 6.32658 22.43L23.2805 16.5215C24.8676 15.9684 26.5024 15.8646 28.0463 16.1431C26.8679 11.3009 29.7671 6.37895 34.6062 5.0814L52.3774 0.31622C57.2855 -0.999839 62.3312 1.91209 63.6472 6.82019C64.514 10.0528 63.5467 13.3452 61.383 15.5923C64.3807 16.4554 66.8655 18.8221 67.7323 22.0548C69.0484 26.9629 66.1365 32.0085 61.2284 33.3246L43.4519 38.0912C38.8855 39.3156 34.1999 36.8791 32.5115 32.5802ZM57.4837 19.3595L39.7125 24.1246C36.9065 24.8771 35.2417 27.7618 35.9941 30.5679C36.7457 33.371 39.6275 35.0341 42.4307 34.2825L60.2071 29.5159C63.0117 28.7639 64.6757 25.8806 63.9236 23.076C63.1716 20.2714 60.2884 18.6074 57.4837 19.3595ZM7.62426 26.1536L24.5782 20.245C27.4362 19.249 30.5605 20.7584 31.5565 23.6164C32.5525 26.4744 31.0431 29.5986 28.1851 30.5946L11.2259 36.505C8.36938 37.5005 5.2467 35.9918 4.25119 33.1353C3.25467 30.2759 4.76485 27.1501 7.62426 26.1536ZM30.3929 53.7411L15.7216 43.3921C13.2472 41.6467 9.82631 42.2376 8.08088 44.712C6.33721 47.1839 6.92757 50.6014 9.39949 52.345L24.0753 62.6972C26.5485 64.4417 29.9676 63.8511 31.7121 61.3779C33.4567 58.9048 32.866 55.4856 30.3929 53.7411ZM38.5612 59.9108L54.9874 52.6634C57.7564 51.4416 60.9915 52.696 62.2133 55.465C63.435 58.234 62.1807 61.4691 59.4117 62.6908L42.9804 69.9405C40.2127 71.1616 36.9793 69.908 35.7582 67.1404C34.5358 64.3699 35.7908 61.1332 38.5612 59.9108Z" fill="url(#paint0_linear_1_326)"/>
<g id="Codar">
<path d="M112.72 52.3405H92.6321C92.1181 52.3405 91.5613 52.2834 90.9617 52.1692C90.3763 52.0407 89.791 51.848 89.2056 51.591C88.6345 51.334 88.0849 51.0056 87.5566 50.6059C87.0284 50.1919 86.5572 49.6993 86.1432 49.1282C85.7434 48.5429 85.4222 47.8718 85.1795 47.1152C84.9368 46.3442 84.8154 45.4805 84.8154 44.5239V29.4474C84.8154 28.9334 84.8725 28.3838 84.9868 27.7984C85.1152 27.1988 85.308 26.6134 85.565 26.0424C85.822 25.457 86.1575 24.9002 86.5715 24.372C86.9855 23.8437 87.4781 23.3797 88.0492 22.9799C88.6345 22.5659 89.3055 22.2375 90.0622 21.9948C90.8189 21.7521 91.6755 21.6308 92.6321 21.6308H112.72V27.1988H92.6321C91.9039 27.1988 91.3471 27.3915 90.9617 27.777C90.5762 28.1625 90.3834 28.7336 90.3834 29.4902V44.5239C90.3834 45.2377 90.5762 45.7945 90.9617 46.1943C91.3614 46.5798 91.9182 46.7725 92.6321 46.7725H112.72V52.3405Z" fill="black"/>
<path d="M145.322 44.5239C145.322 45.4805 145.2 46.3442 144.958 47.1152C144.715 47.8718 144.394 48.5429 143.994 49.1282C143.594 49.6993 143.13 50.1919 142.602 50.6059C142.074 51.0056 141.517 51.334 140.932 51.591C140.361 51.848 139.775 52.0407 139.176 52.1692C138.59 52.2834 138.033 52.3405 137.505 52.3405H127.461C126.69 52.3405 125.848 52.2049 124.934 51.9336C124.021 51.6624 123.171 51.2198 122.386 50.6059C121.615 49.9777 120.965 49.1711 120.437 48.1859C119.923 47.1866 119.666 45.9659 119.666 44.5239V36.9857C119.666 35.558 119.923 34.3516 120.437 33.3664C120.965 32.3671 121.615 31.5604 122.386 30.9465C123.171 30.3183 124.021 29.8686 124.934 29.5973C125.848 29.3261 126.69 29.1904 127.461 29.1904H137.505C138.933 29.1904 140.146 29.4474 141.146 29.9614C142.145 30.4754 142.952 31.125 143.566 31.9102C144.18 32.6811 144.622 33.5235 144.893 34.4372C145.179 35.3509 145.322 36.2004 145.322 36.9857V44.5239ZM139.754 37.0285C139.754 36.2575 139.561 35.6865 139.176 35.3152C138.79 34.944 138.233 34.7584 137.505 34.7584H127.504C126.762 34.7584 126.198 34.9512 125.812 35.3367C125.427 35.7079 125.234 36.2575 125.234 36.9857V44.5239C125.234 45.252 125.427 45.8088 125.812 46.1943C126.198 46.5798 126.762 46.7725 127.504 46.7725H137.505C138.262 46.7725 138.826 46.5798 139.197 46.1943C139.568 45.8088 139.754 45.252 139.754 44.5239V37.0285Z" fill="black"/>
<path d="M178.545 44.5239C178.545 45.4805 178.424 46.3442 178.181 47.1152C177.938 47.8718 177.617 48.5429 177.217 49.1282C176.817 49.6993 176.353 50.1919 175.825 50.6059C175.297 51.0056 174.74 51.334 174.155 51.591C173.584 51.848 172.998 52.0407 172.399 52.1692C171.813 52.2834 171.256 52.3405 170.728 52.3405H160.684C159.728 52.3405 158.871 52.2192 158.115 51.9765C157.358 51.7338 156.687 51.4125 156.101 51.0128C155.53 50.5987 155.038 50.1276 154.624 49.5994C154.224 49.0711 153.896 48.5214 153.639 47.9504C153.382 47.365 153.189 46.7797 153.06 46.1943C152.946 45.5947 152.889 45.0379 152.889 44.5239V36.9857C152.889 35.558 153.146 34.3516 153.66 33.3664C154.188 32.3671 154.838 31.5604 155.609 30.9465C156.394 30.3183 157.244 29.8686 158.157 29.5973C159.071 29.3261 159.913 29.1904 160.684 29.1904H170.728V34.7584H160.727C159.985 34.7584 159.421 34.9512 159.035 35.3367C158.65 35.7079 158.457 36.2575 158.457 36.9857V44.4811C158.457 45.2377 158.643 45.8088 159.014 46.1943C159.399 46.5798 159.956 46.7725 160.684 46.7725H170.728C171.485 46.7725 172.049 46.5798 172.42 46.1943C172.791 45.8088 172.977 45.252 172.977 44.5239V19.4036H178.545V44.5239Z" fill="black"/>
<path d="M210.826 44.6738C210.826 45.4448 210.69 46.28 210.419 47.1794C210.148 48.0646 209.705 48.8926 209.091 49.6636C208.491 50.4203 207.699 51.0556 206.714 51.5696C205.743 52.0835 204.558 52.3405 203.159 52.3405H193.115C192.344 52.3405 191.509 52.2049 190.61 51.9336C189.724 51.6624 188.896 51.2269 188.125 50.6273C187.369 50.0134 186.733 49.221 186.219 48.2502C185.705 47.2651 185.448 46.0729 185.448 44.6738C185.448 43.9028 185.584 43.0676 185.855 42.1682C186.127 41.2687 186.562 40.4407 187.162 39.684C187.776 38.913 188.568 38.2706 189.539 37.7566C190.524 37.2426 191.716 36.9857 193.115 36.9857L205.536 36.8572V42.1682L193.115 42.2967C192.358 42.2967 191.773 42.5323 191.359 43.0034C190.945 43.4603 190.738 44.0313 190.738 44.7166C190.738 45.4448 190.974 46.0158 191.445 46.4299C191.93 46.8296 192.501 47.0295 193.158 47.0295H203.159C203.916 47.0295 204.501 46.8011 204.915 46.3442C205.329 45.8873 205.536 45.3163 205.536 44.631V36.8572C205.536 36.129 205.308 35.5508 204.851 35.1225C204.408 34.6942 203.844 34.48 203.159 34.48H190.931V29.1904H203.159C203.93 29.1904 204.758 29.3261 205.643 29.5973C206.543 29.8686 207.371 30.3112 208.127 30.9251C208.898 31.5247 209.541 32.3171 210.055 33.3022C210.569 34.273 210.826 35.458 210.826 36.8572V44.6738Z" fill="black"/>
<path d="M238.909 34.7584H226.381C225.624 34.7584 225.053 34.9512 224.668 35.3367C224.282 35.7079 224.09 36.2575 224.09 36.9857V52.3405H218.522V36.9857C218.522 36.0291 218.643 35.1725 218.886 34.4158C219.128 33.6591 219.45 32.9952 219.849 32.4242C220.263 31.8388 220.734 31.3463 221.263 30.9465C221.791 30.5325 222.341 30.197 222.912 29.94C223.497 29.683 224.082 29.4974 224.668 29.3832C225.267 29.2547 225.824 29.1904 226.338 29.1904H238.909V34.7584Z" fill="black"/>
</g>
</g>
<defs>
<linearGradient id="paint0_linear_1_326" x1="52.5" y1="4" x2="2.7485e-06" y2="56" gradientUnits="userSpaceOnUse">
<stop stop-color="#2E2065"/>
<stop offset="1" stop-color="#E82F58"/>
</linearGradient>
</defs>
</svg>
