<svg width="53" height="58" viewBox="0 0 53 58" fill="none" xmlns="http://www.w3.org/2000/svg">
<path id="Ellipse 52" d="M51.9217 46.3737C52.0265 46.4531 52.0471 46.6025 51.9668 46.7067C49.0342 50.5105 45.2018 53.5275 40.813 55.485C36.3517 57.4748 31.46 58.3055 26.5919 57.8998C21.7238 57.4942 17.0371 55.8654 12.9666 53.1647C8.89616 50.4639 5.57389 46.7786 3.30812 42.4509C1.04236 38.1232 -0.0934808 33.2933 0.00601602 28.4093C0.105513 23.5254 1.43712 18.7457 3.87726 14.5139C6.31741 10.282 9.78701 6.73514 13.9641 4.20239C18.0733 1.7108 22.7361 0.280075 27.5331 0.0371252C27.6644 0.0304749 27.7754 0.132543 27.781 0.2639C27.7866 0.395257 27.6846 0.50616 27.5532 0.512828C22.8364 0.752368 18.2516 2.15951 14.2109 4.60951C10.1024 7.10068 6.6898 10.5893 4.28972 14.7517C1.88964 18.9141 0.579895 23.6153 0.482032 28.419C0.384168 33.2228 1.50136 37.9734 3.72993 42.2301C5.95849 46.4868 9.22622 50.1115 13.2298 52.7679C17.2335 55.4244 21.8433 57.0264 26.6314 57.4254C31.4196 57.8244 36.231 57.0073 40.619 55.0501C44.9346 53.1253 48.7032 50.159 51.5874 46.4191C51.6676 46.3149 51.8169 46.2943 51.9217 46.3737Z" fill="black"/>
</svg>
