<svg width="96" height="96" viewBox="0 0 96 96" fill="none" xmlns="http://www.w3.org/2000/svg">
<g id="Group 747">
<g id="Group 744">
<path id="Vector 367" d="M40.2514 12.3387L41.0087 12.7842L43.0488 11.7419L43.3342 13.3366L44.038 14.566L43.2005 15.2966L43.5658 15.7153L45.0803 16.6062L47.0937 15.9559L49.1236 72.8041C48.5392 72.1341 46.6529 70.5352 45.7828 69.8195C44.9812 64.2514 43.499 52.4933 43.9837 50.0059C44.4684 47.5185 43.2829 46.8076 42.6296 46.763C42.7692 46.6413 42.4835 46.5955 40.2242 47.3866C35.0304 42.7004 33.0881 48.0813 31.5201 47.9744C30.2657 47.8888 26.4835 48.681 24.7492 49.0878C22.9467 48.5711 19.2845 47.2186 19.0565 45.9428C18.8285 44.6671 16.3007 42.0793 15.0654 40.9448C15.3445 40.7013 15.6106 39.8793 14.4418 38.5394C15.8673 36.1162 15.4101 32.0418 15.0033 30.3075L17.5692 27.332C17.5009 26.4084 17.7563 24.588 19.3243 24.695C20.037 23.4834 20.7557 22.9548 21.0259 22.8419L23.1196 21.0157L23.7255 17.9064L26.6028 16.1336C26.481 15.994 26.4888 15.4957 27.4937 14.6191C28.7053 15.3318 31.6928 14.6429 33.0351 14.2094L34.6833 13.1404L37.4272 13.3275L38.63 13.0157L40.2514 12.3387Z" fill="white"/>
<path id="Vector 368" d="M52.0093 42.0738L51.4754 15.2578L54.5579 16.2557L56.9098 16.4162L58.8698 16.5498L61.302 15.5342C61.5366 15.9441 62.3354 16.5499 63.6539 15.6947C64.9725 14.8394 64.5656 17.7259 64.1973 19.2761L61.9523 17.5477L65.2129 21.7083C65.5959 21.8657 66.4868 22.6615 66.9857 24.5859C70.0949 25.1918 68.028 26.6261 69.1238 27.8823C70.7131 27.6756 71.5262 29.2276 71.734 30.0294L52.0093 42.0738Z" fill="white"/>
<path id="Vector 369" d="M74.2231 33.9532L52.4047 47.8239L73.7056 64.6356L74.5965 63.1211L74.0799 59.1477L74.4986 58.7825L74.1601 57.9717L73.4029 57.5263L72.7258 55.9048C73.0228 55.4 73.3085 54.2905 72.0755 53.8914C71.6194 51.3398 73.7208 49.0152 74.8285 48.1719C74.8731 47.5186 75.6215 45.7843 78.2586 44.0738C82.4281 38.3722 82.6212 34.0009 82.1966 32.5279L79.7644 33.5435L76.1295 34.8708L74.2231 33.9532Z" fill="white"/>
<path id="Vector 370" d="M73.0445 68.5288L52.866 52.5813L50.9324 69.3836L51.7608 74.5597C53.1001 76.095 55.914 79.49 56.4557 80.7872C55.5647 82.3017 57.4178 84.0033 57.4445 83.6113C57.4712 83.2194 59.4579 82.961 62.6474 82.3909C65.1989 81.9349 67.9156 78.287 68.9551 76.5201C69.9143 75.9291 71.5512 74.2555 70.4251 72.2884C72.3709 71.4759 72.9821 69.4435 73.0445 68.5288Z" fill="white"/>
</g>
<path id="Ellipse 49" d="M7.83524 73.6755C7.69215 73.7672 7.50164 73.7254 7.4109 73.5817C1.71062 64.5558 -0.817522 53.8832 0.232229 43.2538C1.29207 32.5222 5.93707 22.4609 13.4176 14.6935C20.898 6.9262 30.7776 1.90605 41.4617 0.443324C52.044 -1.00548 62.8042 1.11945 72.0381 6.47622C72.1851 6.5615 72.2341 6.75029 72.1478 6.89673C72.0616 7.04318 71.8729 7.09182 71.7259 7.00655C62.6112 1.71997 51.9904 -0.377001 41.5451 1.05303C30.9981 2.49699 21.2453 7.45274 13.8608 15.1204C6.4763 22.7881 1.89089 32.7204 0.844648 43.3143C-0.191506 53.806 2.30345 64.3403 7.92912 73.2497C8.01985 73.3934 7.97834 73.5839 7.83524 73.6755Z" fill="white"/>
</g>
</svg>
