<svg width="58" height="58" viewBox="0 0 58 58" fill="none" xmlns="http://www.w3.org/2000/svg">
<g id="Group 770">
<g id="Group 769">
<path id="Vector 379" d="M16.9404 14.9702V17.9404M24.1537 38.7318V36.398M24.1537 38.7318V18.3647M24.1537 38.7318H19.4863M19.4863 34.0643H24.1537V36.398M19.4863 34.0643V38.7318M19.4863 34.0643V31.7306M19.4863 27.2753H24.1537V24.0929M19.4863 27.2753H16.9404M19.4863 27.2753V31.7306M40.702 38.7318V36.398M47.0667 38.7318H33.9129M11 38.7318H19.4863M25.0024 29.3969H27.5482M36.8831 29.3969V27.2753H33.9129V25.4189M36.8831 29.3969H29.2455M36.8831 29.3969V31.7306M24.1537 36.398H27.5482M30.9427 36.398V34.0643H33.9129M30.9427 36.398V38.7318H33.9129M30.9427 36.398H27.5482M27.5482 29.3969V36.398M27.5482 29.3969H29.2455M24.1537 24.0929V20.9106H19.4863V17.9404M24.1537 24.0929H29.2455V25.4189M29.2455 29.3969V26.7449V25.4189M29.2455 25.4189V18.3647M29.2455 25.4189H30.9427M29.2455 18.3647H26.6996M29.2455 18.3647V12H26.6996V18.3647M24.1537 18.3647V14.9702H19.4863V17.9404M24.1537 18.3647H26.6996M33.9129 25.4189V23.0322H36.8831V20.9106H33.9129V17.9404M33.9129 25.4189H30.9427M30.9427 20.9106V25.4189M33.9129 17.9404V14.9702H40.702V17.9404M33.9129 17.9404H40.702M40.702 17.9404V31.7306M36.8831 31.7306V34.0643H33.9129M36.8831 31.7306H40.702M40.702 31.7306V36.398M33.9129 34.0643V36.398M33.9129 38.7318V36.398M33.9129 38.7318H19.4863M33.9129 36.398H40.702M16.9404 17.9404H19.4863M16.9404 17.9404V27.2753M16.9404 27.2753V31.7306M19.4863 38.7318H16.9404V31.7306M16.9404 31.7306H19.4863" stroke="black" stroke-width="0.848628"/>
<path id="Vector 380" d="M11.2998 38.4V42H46.9998V38.4" stroke="black" stroke-width="0.848628"/>
</g>
<path id="Ellipse 50" d="M51.9217 46.3737C52.0265 46.4531 52.0471 46.6025 51.9668 46.7067C49.0342 50.5105 45.2018 53.5275 40.813 55.485C36.3517 57.4748 31.46 58.3055 26.5919 57.8998C21.7238 57.4942 17.0371 55.8654 12.9666 53.1647C8.89616 50.4639 5.57389 46.7786 3.30812 42.4509C1.04236 38.1232 -0.0934808 33.2933 0.00601602 28.4093C0.105513 23.5254 1.43712 18.7457 3.87726 14.5139C6.31741 10.282 9.78701 6.73514 13.9641 4.20239C18.0733 1.7108 22.7361 0.280075 27.5331 0.0371252C27.6644 0.0304749 27.7754 0.132543 27.781 0.2639C27.7866 0.395257 27.6846 0.50616 27.5532 0.512828C22.8364 0.752368 18.2516 2.15951 14.2109 4.60951C10.1024 7.10068 6.6898 10.5893 4.28972 14.7517C1.88964 18.9141 0.579895 23.6153 0.482032 28.419C0.384168 33.2228 1.50136 37.9734 3.72993 42.2301C5.95849 46.4868 9.22622 50.1115 13.2298 52.7679C17.2335 55.4244 21.8433 57.0264 26.6314 57.4254C31.4196 57.8244 36.231 57.0073 40.619 55.0501C44.9346 53.1253 48.7032 50.159 51.5874 46.4191C51.6676 46.3149 51.8169 46.2943 51.9217 46.3737Z" fill="black"/>
</g>
</svg>
