<svg width="234" height="62" viewBox="0 0 234 62" fill="none" xmlns="http://www.w3.org/2000/svg">
<g id="Group 2608212">
<g id="Group 69">
<rect id="Rectangle 17" width="61.0651" height="61.0651" rx="4.71986" fill="#157DFB"/>
<path id="Vector 36" d="M21.1357 15.4444C33.6085 11.569 43.8923 17.9023 35.2812 26.1912M21.1357 15.4444L27.3829 30.5098L43.3761 43.1996C33.815 34.2469 19.2566 39.396 35.2812 26.1912M21.1357 15.4444L24.491 29.647L21.1357 44.0429C22.4505 44.8503 20.6814 33.0268 35.2812 26.1912" stroke="#F9F9FF" stroke-width="4.28191"/>
</g>
<g id="resela">
<path d="M74.6059 20.5552C75.5125 18.7796 76.797 17.4007 78.4592 16.4185C79.5 15.8172 80.6752 15.3999 81.985 15.1667C83.4332 14.9089 84.6359 16.1376 84.6359 17.6085V18.9118C84.6359 19.6629 84.027 20.2718 83.2759 20.2718C77.4959 20.2718 74.6059 23.4074 74.6059 29.6785V43.9868C74.6059 45.4108 73.4515 46.5651 72.0275 46.5651C70.6036 46.5651 69.4492 45.4108 69.4492 43.9868V18.0902C69.4492 16.6662 70.6036 15.5118 72.0275 15.5118C73.4515 15.5118 74.6059 16.6662 74.6059 18.0902V20.5552Z" fill="#157DFB"/>
<path d="M118.922 29.8485C118.922 30.0066 118.92 30.1661 118.917 30.3271C118.89 31.8292 117.61 32.9651 116.108 32.9651H97.05C95.3599 32.9651 93.9685 34.4154 94.4713 36.029C94.9845 37.6756 95.8435 39.0532 97.0485 40.1618C98.9752 41.8618 101.299 42.7118 104.019 42.7118C106.247 42.7118 108.098 42.2018 109.572 41.1818C110.536 40.5072 111.315 39.6943 111.91 38.743C112.528 37.7546 113.527 36.9885 114.692 36.9885C116.505 36.9885 117.822 38.7405 116.904 40.3032C116.007 41.8325 114.809 43.1642 113.312 44.2985C110.818 46.1496 107.721 47.0751 104.019 47.0751C101.072 47.0751 98.4274 46.414 96.0852 45.0918C93.7807 43.7696 91.9674 41.8996 90.6452 39.4818C89.323 37.0262 88.6619 34.1929 88.6619 30.9818C88.6619 27.7707 89.3041 24.9563 90.5885 22.5385C91.873 20.1207 93.6674 18.2696 95.9718 16.9852C98.3141 15.6629 100.996 15.0018 104.019 15.0018C106.965 15.0018 109.572 15.644 111.838 16.9285C114.105 18.2129 115.843 19.9885 117.052 22.2551C118.298 24.484 118.922 27.0151 118.922 29.8485ZM110.664 28.7718C112.283 28.7718 113.659 27.4324 113.225 25.8727C113.009 25.0961 112.698 24.3814 112.292 23.7285C111.423 22.2929 110.233 21.2163 108.722 20.4985C107.249 19.7429 105.605 19.3652 103.792 19.3652C101.185 19.3652 98.9563 20.1963 97.1052 21.8585C95.9932 22.8778 95.1724 24.1387 94.6429 25.641C94.0703 27.2656 95.4725 28.7718 97.195 28.7718H110.664Z" fill="#157DFB"/>
<path d="M136.722 47.0751C134.342 47.0751 132.207 46.6785 130.318 45.8851C128.43 45.054 126.937 43.9207 125.842 42.4851C125.321 41.7848 124.911 41.0375 124.612 40.2433C124.064 38.7853 125.343 37.4418 126.901 37.4418C128.293 37.4418 129.383 38.5701 130.124 39.7489C130.472 40.3022 130.933 40.7987 131.508 41.2385C132.831 42.2207 134.55 42.7118 136.665 42.7118C138.63 42.7118 140.178 42.2774 141.312 41.4085C142.445 40.5396 143.012 39.444 143.012 38.1218C143.012 36.7618 142.407 35.7607 141.198 35.1185C139.99 34.4385 138.12 33.7774 135.588 33.1351C133.284 32.5307 131.395 31.9262 129.922 31.3218C128.486 30.6796 127.24 29.754 126.182 28.5451C125.162 27.2985 124.652 25.674 124.652 23.6718C124.652 22.0852 125.124 20.6307 126.068 19.3085C127.013 17.9863 128.354 16.9474 130.092 16.1918C131.83 15.3985 133.813 15.0018 136.042 15.0018C139.48 15.0018 142.256 15.8707 144.372 17.6085C145.814 18.7933 146.8 20.2766 147.329 22.0585C147.752 23.4835 146.526 24.7485 145.039 24.7485C143.674 24.7485 142.621 23.6312 141.97 22.4308C141.644 21.8295 141.198 21.2988 140.632 20.8385C139.461 19.8563 137.874 19.3652 135.872 19.3652C134.021 19.3652 132.547 19.7618 131.452 20.5552C130.356 21.3485 129.808 22.3874 129.808 23.6718C129.808 24.6918 130.13 25.5418 130.772 26.2218C131.452 26.864 132.283 27.3929 133.265 27.8085C134.285 28.1863 135.683 28.6207 137.458 29.1118C139.687 29.7163 141.501 30.3207 142.898 30.9251C144.296 31.4918 145.486 32.3607 146.468 33.5318C147.488 34.7029 148.017 36.2329 148.055 38.1218C148.055 39.8218 147.583 41.3518 146.638 42.7118C145.694 44.0718 144.353 45.1485 142.615 45.9418C140.915 46.6973 138.951 47.0751 136.722 47.0751Z" fill="#157DFB"/>
<path d="M183.668 29.8485C183.668 30.0066 183.666 30.1661 183.663 30.3271C183.636 31.8292 182.356 32.9651 180.854 32.9651H161.796C160.106 32.9651 158.714 34.4154 159.217 36.029C159.73 37.6756 160.59 39.0532 161.795 40.1618C163.721 41.8618 166.045 42.7118 168.765 42.7118C170.993 42.7118 172.845 42.2018 174.318 41.1818C175.282 40.5072 176.061 39.6943 176.656 38.743C177.274 37.7546 178.273 36.9885 179.438 36.9885C181.251 36.9885 182.568 38.7405 181.65 40.3032C180.753 41.8325 179.555 43.1642 178.058 44.2985C175.565 46.1496 172.467 47.0751 168.765 47.0751C165.818 47.0751 163.173 46.414 160.831 45.0918C158.527 43.7696 156.713 41.8996 155.391 39.4818C154.069 37.0262 153.408 34.1929 153.408 30.9818C153.408 27.7707 154.05 24.9563 155.335 22.5385C156.619 20.1207 158.413 18.2696 160.718 16.9852C163.06 15.6629 165.742 15.0018 168.765 15.0018C171.711 15.0018 174.318 15.644 176.585 16.9285C178.851 18.2129 180.589 19.9885 181.798 22.2551C183.045 24.484 183.668 27.0151 183.668 29.8485ZM175.41 28.7718C177.029 28.7718 178.405 27.4324 177.971 25.8727C177.755 25.0961 177.444 24.3814 177.038 23.7285C176.169 22.2929 174.979 21.2163 173.468 20.4985C171.995 19.7429 170.351 19.3652 168.538 19.3652C165.931 19.3652 163.702 20.1963 161.851 21.8585C160.739 22.8778 159.918 24.1387 159.389 25.641C158.816 27.2656 160.218 28.7718 161.941 28.7718H175.41Z" fill="#157DFB"/>
<path d="M193.053 4.63184C194.477 4.63184 195.631 5.78619 195.631 7.21016V43.9868C195.631 45.4108 194.477 46.5651 193.053 46.5651C191.629 46.5651 190.474 45.4108 190.474 43.9868V7.21017C190.474 5.78619 191.629 4.63184 193.053 4.63184Z" fill="#157DFB"/>
<path d="M202.493 30.9251C202.493 27.7518 203.135 24.9751 204.42 22.5951C205.704 20.1774 207.461 18.3074 209.69 16.9852C211.956 15.6629 214.469 15.0018 217.226 15.0018C219.946 15.0018 222.308 15.5874 224.31 16.7585C224.864 17.0826 225.379 17.4298 225.855 17.8002C226.803 18.5377 228.786 17.8755 228.786 16.6746C228.786 16.0324 229.307 15.5118 229.949 15.5118H231.393C232.833 15.5118 234 16.6789 234 18.1185V43.9585C234 45.3981 232.833 46.5651 231.393 46.5651H229.986C229.324 46.5651 228.786 46.028 228.786 45.3653C228.786 44.1307 226.773 43.4577 225.803 44.2216C225.308 44.6113 224.773 44.9769 224.196 45.3185C222.194 46.4896 219.852 47.0751 217.17 47.0751C214.412 47.0751 211.919 46.3951 209.69 45.0351C207.461 43.6751 205.704 41.7673 204.42 39.3118C203.135 36.8562 202.493 34.0607 202.493 30.9251ZM228.786 30.9818C228.786 28.6396 228.314 26.5996 227.37 24.8618C226.425 23.124 225.141 21.8018 223.516 20.8952C221.93 19.9507 220.173 19.4785 218.246 19.4785C216.32 19.4785 214.563 19.9318 212.976 20.8385C211.39 21.7451 210.124 23.0674 209.18 24.8051C208.235 26.5429 207.763 28.5829 207.763 30.9251C207.763 33.3051 208.235 35.3829 209.18 37.1585C210.124 38.8962 211.39 40.2374 212.976 41.1818C214.563 42.0885 216.32 42.5418 218.246 42.5418C220.173 42.5418 221.93 42.0885 223.516 41.1818C225.141 40.2374 226.425 38.8962 227.37 37.1585C228.314 35.3829 228.786 33.324 228.786 30.9818Z" fill="#157DFB"/>
</g>
</g>
</svg>
