<svg width="88" height="6" viewBox="0 0 88 6" fill="none" xmlns="http://www.w3.org/2000/svg">
<path id="Vector" d="M2.4306 0.692422V5.04822H1.59858V0.692422H2.4306ZM0.207031 1.06278V0.295982H3.82213V1.06278H0.207031ZM6.94584 5.04822H6.15296V0.211182H6.95236V2.25283C7.05238 2.09628 7.19081 1.97307 7.36838 1.88175C7.55102 1.78681 7.75902 1.73897 7.99312 1.73897C8.38739 1.73897 8.68599 1.85856 8.88965 2.09628C9.09765 2.33473 9.20202 2.66015 9.20202 3.07181V5.04822H8.40912V3.26024C8.40912 3.07833 8.38087 2.92903 8.32434 2.81162C8.2678 2.69493 8.19026 2.60796 8.09024 2.55143C7.99095 2.49128 7.87353 2.46084 7.73945 2.46084C7.57421 2.46084 7.43143 2.4978 7.3104 2.571C7.19299 2.64058 7.10239 2.73842 7.03716 2.8638C6.97628 2.98918 6.94584 3.13269 6.94584 3.29286V5.04822ZM11.793 5.04822V1.83682H12.5859V5.04822H11.793ZM12.1829 1.19323C12.0489 1.19323 11.9336 1.14757 11.8387 1.05625C11.7474 0.961307 11.7024 0.846072 11.7024 0.711991C11.7024 0.577911 11.7474 0.464852 11.8387 0.373532C11.9336 0.282938 12.0489 0.237275 12.1829 0.237275C12.3177 0.237275 12.4301 0.282938 12.5214 0.373532C12.6164 0.464852 12.6642 0.577911 12.6642 0.711991C12.6642 0.846072 12.6164 0.961307 12.5214 1.05625C12.4301 1.14757 12.3177 1.19323 12.1829 1.19323ZM16.0104 5.04822H15.2175V1.83682H15.9524L16.0169 2.25283C16.1169 2.09266 16.2575 1.96655 16.4394 1.87596C16.6264 1.78464 16.8279 1.73897 17.0446 1.73897C17.4476 1.73897 17.7505 1.85856 17.9542 2.09628C18.1629 2.33473 18.2666 2.66015 18.2666 3.07181V5.04822H17.4737V3.26024C17.4737 2.99136 17.4128 2.79205 17.2918 2.66232C17.17 2.52824 17.0055 2.46084 16.7975 2.46084C16.5503 2.46084 16.3576 2.53838 16.2191 2.69493C16.08 2.85075 16.0104 3.05876 16.0104 3.31895V5.04822ZM21.6577 5.04822H20.8706V0.211182H21.6577V3.18197L22.9057 1.83682H23.9001L22.6782 3.11095L23.874 5.04822H22.9645L22.1252 3.69583L21.6577 4.18359V5.04822ZM29.7322 5.04822V1.83682H30.5251V5.04822H29.7322ZM30.1222 1.19323C29.9874 1.19323 29.8728 1.14757 29.7772 1.05625C29.6866 0.961307 29.6409 0.846072 29.6409 0.711991C29.6409 0.577911 29.6866 0.464852 29.7772 0.373532C29.8728 0.282938 29.9874 0.237275 30.1222 0.237275C30.2562 0.237275 30.3693 0.282938 30.4599 0.373532C30.5556 0.464852 30.6034 0.577911 30.6034 0.711991C30.6034 0.846072 30.5556 0.961307 30.4599 1.05625C30.3693 1.14757 30.2562 1.19323 30.1222 1.19323ZM32.8378 1.83682H34.8664V2.49997H32.8378V1.83682ZM34.2489 5.04822H33.4553V0.835199H34.2489V5.04822ZM37.6307 4.98952L37.7089 4.96995C37.6741 5.00039 37.635 5.0243 37.5923 5.0417C37.5531 5.05474 37.5053 5.06127 37.4488 5.06127C37.3234 5.06127 37.2147 5.01996 37.1241 4.93734C37.0327 4.85109 36.9871 4.74238 36.9871 4.61264C36.9871 4.45682 37.0327 4.33071 37.1241 4.23577C37.2147 4.1401 37.3342 4.09227 37.4814 4.09227C37.6459 4.09227 37.7807 4.15315 37.8843 4.27418C37.9887 4.39594 38.0409 4.55829 38.0409 4.76195C38.0409 4.93951 38.0017 5.10258 37.9235 5.24971C37.8452 5.40118 37.7372 5.52512 37.5988 5.62006C37.4596 5.71573 37.3016 5.77443 37.1241 5.79545V5.47728C37.2712 5.45119 37.3929 5.39466 37.4879 5.30841C37.5836 5.22579 37.6307 5.11997 37.6307 4.98952ZM46.3749 5.1265C45.911 5.1265 45.5081 5.02648 45.1653 4.82717C44.8275 4.62351 44.563 4.33941 44.3724 3.97558C44.1861 3.6074 44.0926 3.174 44.0926 2.67536C44.0926 2.18108 44.1883 1.74985 44.3789 1.38167C44.5739 1.01277 44.8471 0.727215 45.1979 0.523558C45.5494 0.319901 45.9545 0.217706 46.414 0.217706C46.7909 0.217706 47.1286 0.287285 47.428 0.425714C47.7266 0.564868 47.9737 0.759827 48.1687 1.01132C48.3643 1.25774 48.4875 1.55271 48.5397 1.8948H47.662C47.5794 1.61794 47.4258 1.40341 47.2004 1.25121C46.9793 1.09539 46.7083 1.01712 46.3879 1.01712C46.1016 1.01712 45.8502 1.08452 45.6334 1.21933C45.4211 1.35341 45.2566 1.54401 45.1392 1.79116C45.0225 2.0383 44.9638 2.33255 44.9638 2.67536C44.9638 3.0044 45.0225 3.29503 45.1392 3.54652C45.2566 3.79367 45.4211 3.98645 45.6334 4.12488C45.8502 4.25968 46.1016 4.32636 46.3879 4.32636C46.7126 4.32636 46.9902 4.24881 47.2199 4.09227C47.454 3.93644 47.6099 3.72626 47.6881 3.46172H48.5528C48.4919 3.79149 48.36 4.0814 48.1556 4.33289C47.9563 4.58438 47.7034 4.77934 47.3953 4.91777C47.0917 5.05692 46.7518 5.1265 46.3749 5.1265ZM53.0093 1.82377V2.55795H52.7165C52.4259 2.55795 52.1983 2.63623 52.0338 2.79205C51.8693 2.94425 51.7867 3.17617 51.7867 3.48782V5.04822H50.9938V1.84334H51.741L51.8062 2.50649H51.7279C51.7714 2.29414 51.8736 2.1202 52.0338 1.98612C52.194 1.85204 52.402 1.78464 52.6578 1.78464C52.7143 1.78464 52.7709 1.78681 52.8267 1.79116C52.8832 1.7955 52.9441 1.80638 53.0093 1.82377ZM56.6867 5.13229C56.37 5.13229 56.0888 5.06127 55.8417 4.91777C55.5989 4.77064 55.4083 4.57133 55.2691 4.31984C55.1307 4.064 55.0611 3.77192 55.0611 3.44216C55.0611 3.10877 55.1285 2.81379 55.2626 2.55795C55.3974 2.30284 55.5858 2.1028 55.8286 1.96003C56.0714 1.8129 56.3483 1.73897 56.6606 1.73897C56.9853 1.73897 57.2651 1.80855 57.4992 1.94698C57.7333 2.08179 57.913 2.27022 58.0391 2.51302C58.1689 2.75509 58.2341 3.04572 58.2341 3.38418V3.62408L55.4771 3.63059L55.4902 3.12399H57.447C57.447 2.90294 57.376 2.72537 57.2325 2.59057C57.0941 2.45649 56.9056 2.38908 56.6672 2.38908C56.4809 2.38908 56.3222 2.42822 56.1925 2.50649C56.0671 2.58404 55.9714 2.70145 55.9062 2.85728C55.8417 3.0131 55.8091 3.20371 55.8091 3.42911C55.8091 3.77627 55.8823 4.03863 56.0301 4.2162C56.1816 4.39376 56.4048 4.48219 56.6998 4.48219C56.9165 4.48219 57.0941 4.4416 57.2325 4.35898C57.376 4.27636 57.4688 4.15967 57.5122 4.0082H58.2471C58.1776 4.35898 58.0044 4.63439 57.7268 4.8337C57.4535 5.03301 57.1071 5.13229 56.6867 5.13229ZM61.6042 5.13229C61.2665 5.13229 60.9976 5.0417 60.7983 4.85978C60.6033 4.67352 60.5055 4.43073 60.5055 4.1314C60.5055 3.83643 60.6077 3.60305 60.8113 3.42911C61.0194 3.25155 61.3143 3.14791 61.6956 3.11747L62.6573 3.03919V2.96744C62.6573 2.82031 62.629 2.70363 62.5732 2.61666C62.521 2.52606 62.445 2.46083 62.3457 2.4217C62.2456 2.37821 62.129 2.35647 61.9942 2.35647C61.7608 2.35647 61.5803 2.4043 61.4549 2.49997C61.3288 2.59057 61.2665 2.72103 61.2665 2.88989H60.5903C60.5903 2.6558 60.649 2.45431 60.7657 2.28545C60.8874 2.1115 61.0563 1.97742 61.273 1.88175C61.4941 1.78681 61.7477 1.73897 62.0333 1.73897C62.3239 1.73897 62.5732 1.79116 62.7812 1.8948C62.9892 1.99482 63.1494 2.14629 63.2625 2.34995C63.3748 2.54926 63.4313 2.79857 63.4313 3.0979V5.04822H62.7356L62.6769 4.57351C62.608 4.73803 62.4732 4.87283 62.2739 4.97647C62.0789 5.08084 61.8557 5.13229 61.6042 5.13229ZM61.8579 4.53437C62.105 4.53437 62.3 4.46552 62.4428 4.32636C62.5906 4.18793 62.6638 3.99515 62.6638 3.74801V3.57914L61.9942 3.63059C61.7477 3.65234 61.5716 3.70452 61.468 3.78714C61.3636 3.86469 61.3121 3.96906 61.3121 4.09879C61.3121 4.24229 61.3593 4.35028 61.4549 4.42421C61.5499 4.49741 61.6847 4.53437 61.8579 4.53437ZM65.6592 1.83682H67.6879V2.49997H65.6592V1.83682ZM67.0704 5.04822H66.2767V0.835199H67.0704V5.04822ZM71.4044 5.13229C71.0877 5.13229 70.8058 5.06127 70.5586 4.91777C70.3165 4.77064 70.1252 4.57133 69.9868 4.31984C69.8484 4.064 69.7788 3.77192 69.7788 3.44216C69.7788 3.10877 69.8462 2.81379 69.9803 2.55795C70.1143 2.30284 70.3035 2.1028 70.5456 1.96003C70.7884 1.8129 71.066 1.73897 71.3783 1.73897C71.703 1.73897 71.9828 1.80855 72.2169 1.94698C72.451 2.08179 72.6307 2.27022 72.7561 2.51302C72.8866 2.75509 72.951 3.04572 72.951 3.38418V3.62408L70.1948 3.63059L70.2078 3.12399H72.1647C72.1647 2.90294 72.0929 2.72537 71.9502 2.59057C71.8117 2.45649 71.6233 2.38908 71.3848 2.38908C71.1979 2.38908 71.0399 2.42822 70.9101 2.50649C70.784 2.58404 70.6891 2.70145 70.6238 2.85728C70.5586 3.0131 70.5267 3.20371 70.5267 3.42911C70.5267 3.77627 70.5999 4.03863 70.7478 4.2162C70.8993 4.39376 71.1225 4.48219 71.4167 4.48219C71.6334 4.48219 71.8117 4.4416 71.9502 4.35898C72.0929 4.27636 72.1864 4.15967 72.2299 4.0082H72.9641C72.8952 4.35898 72.7213 4.63439 72.4444 4.8337C72.1712 5.03301 71.8248 5.13229 71.4044 5.13229ZM78.9622 5.04822V1.83682H79.7551V5.04822H78.9622ZM79.3521 1.19323C79.218 1.19323 79.1028 1.14757 79.0079 1.05625C78.9165 0.961307 78.8709 0.846072 78.8709 0.711991C78.8709 0.577911 78.9165 0.464852 79.0079 0.373532C79.1028 0.282938 79.218 0.237275 79.3521 0.237275C79.4862 0.237275 79.5993 0.282938 79.6906 0.373532C79.7855 0.464852 79.8334 0.577911 79.8334 0.711991C79.8334 0.846072 79.7855 0.961307 79.6906 1.05625C79.5993 1.14757 79.4862 1.19323 79.3521 1.19323ZM82.0678 1.83682H84.0964V2.49997H82.0678V1.83682ZM83.4789 5.04822H82.686V0.835199H83.4789V5.04822ZM86.7439 5.1265C86.6011 5.1265 86.4779 5.07649 86.3736 4.97647C86.2692 4.87718 86.2178 4.75542 86.2178 4.61264C86.2178 4.46987 86.2692 4.34811 86.3736 4.24882C86.4779 4.14445 86.6011 4.09227 86.7439 4.09227C86.8874 4.09227 87.0106 4.14445 87.115 4.24882C87.2186 4.34811 87.2708 4.46987 87.2708 4.61264C87.2708 4.75542 87.2186 4.87718 87.115 4.97647C87.0106 5.07649 86.8874 5.1265 86.7439 5.1265Z" fill="black"/>
</svg>
