<svg width="159" height="139" viewBox="0 0 159 139" fill="none" xmlns="http://www.w3.org/2000/svg">
<g id="Group 2608341">
<rect id="Rectangle 449" y="0.5" width="159" height="138" rx="8" fill="#F0FFF6"/>
<path id="Vector 398" d="M99.5202 69.7236H106.447M99.5202 69.7236V57.354M99.5202 69.7236V82.0932M99.5202 57.354V51.4166H92.5932M99.5202 57.354H106.447M99.5202 82.0932V88.0307H92.5932M99.5202 82.0932H106.447M61.9166 82.0932V88.0307H67.854M61.9166 82.0932H54M61.9166 82.0932V69.7236M61.9166 69.7236H54M61.9166 69.7236V57.354M61.9166 57.354V51.4166H67.854M61.9166 57.354H54M80.7184 88.0307V95.9472M80.7184 88.0307H92.5932M80.7184 88.0307H67.854M92.5932 88.0307V95.9472M67.854 88.0307V95.9472M80.7184 51.4166V43.5M80.7184 51.4166H92.5932M80.7184 51.4166H67.854M92.5932 51.4166V43.5M67.854 51.4166V43.5M69.8331 60.3227V80.1141H89.6245V60.3227H69.8331Z" stroke="black" stroke-width="1.97914"/>
</g>
</svg>
