<svg width="88" height="16" viewBox="0 0 88 16" fill="none" xmlns="http://www.w3.org/2000/svg">
<path id="Vector" d="M3.74912 12.5411C3.21686 14.0405 1.79813 15.0424 0.207031 15.0424L5.06808 1.58221C5.33654 0.838844 6.04212 0.343479 6.83247 0.343479C7.62283 0.343479 8.32841 0.838846 8.59687 1.58221L13.4579 15.0424C11.8323 15.0424 10.3845 14.0142 9.84873 12.4794L9.55715 11.6441H4.06754L3.74912 12.5411ZM6.50029 4.72703L4.81163 9.47248H8.81306L7.12357 4.72703C7.06988 4.52596 7.01032 4.32487 6.94321 4.1238C6.8761 3.92272 6.83583 3.7484 6.82241 3.60093C6.79556 3.73498 6.74858 3.9093 6.68147 4.1238C6.62779 4.32487 6.5674 4.52596 6.50029 4.72703ZM21.2301 0.343479V12.4687C21.2301 13.8901 20.0779 15.0424 18.6565 15.0424V2.91715C18.6565 1.49575 19.8087 0.343479 21.2301 0.343479ZM27.7457 0.343479C27.7457 1.65392 26.6834 2.71624 25.3729 2.71624H18.8578C18.8578 1.4058 19.9201 0.343479 21.2305 0.343479H27.7457ZM26.6996 9.03006H18.8175V6.71769H24.3872C25.6643 6.71769 26.6996 7.75297 26.6996 9.03006ZM35.9944 12.4687C35.9944 13.8901 34.8421 15.0424 33.4207 15.0424V7.69293V5.95389C33.4207 2.85535 35.9326 0.343479 39.0311 0.343479C40.6929 0.343479 41.9865 0.74564 42.9118 1.54996C43.8505 2.35427 44.3194 3.4803 44.3194 4.92811C44.3194 5.90666 44.0912 6.74453 43.6357 7.44156C43.1936 8.12524 42.5368 8.64803 41.6652 9.01L44.4603 15.0424C42.7459 15.0424 41.1898 14.04 40.4809 12.4791L39.1519 9.55293H35.9944V12.4687ZM39.0311 2.6358C37.368 2.6358 35.9944 3.98402 35.9944 5.64713V7.28074H39.0311C39.849 7.28074 40.4857 7.07296 40.9412 6.65738C41.3967 6.2418 41.6249 5.6654 41.6249 4.92811C41.6249 4.19082 41.3967 3.62777 40.9412 3.23903C40.4857 2.83687 39.849 2.6358 39.0311 2.6358ZM51.1118 15.0424C50.4344 15.0424 49.8853 14.4933 49.8853 13.8159V6.3355C49.8853 5.65815 50.4344 5.10906 51.1118 5.10906C51.7891 5.10906 52.3382 5.65816 52.3382 6.3355V13.8159C52.3382 14.4933 51.7891 15.0424 51.1118 15.0424ZM51.0916 3.1184C50.6764 3.1184 50.3207 2.97764 50.0263 2.69611C49.7444 2.40117 49.6035 2.04599 49.6035 1.63041C49.6035 1.21483 49.7444 0.866272 50.0263 0.584743C50.3207 0.303301 50.6764 0.162535 51.0916 0.162535C51.5069 0.162535 51.8559 0.303301 52.1369 0.584743C52.4322 0.866272 52.5798 1.21483 52.5798 1.63041C52.5798 2.04599 52.4322 2.40117 52.1369 2.69611C51.8559 2.97764 51.5069 3.1184 51.0916 3.1184ZM64.8039 15.2836C63.3694 15.2836 62.1229 14.9753 61.0634 14.3587C60.0181 13.7286 59.2002 12.8506 58.6105 11.7245C58.0342 10.5851 57.7456 9.24455 57.7456 7.70295C57.7456 6.17477 58.0409 4.84095 58.6306 3.7015C59.2338 2.56206 60.0785 1.6773 61.164 1.0473C62.2504 0.417221 63.5037 0.102222 64.9247 0.102222C66.0908 0.102222 67.136 0.316635 68.0613 0.745638C68.9857 1.17464 69.7499 1.77788 70.3531 2.55535C70.6311 2.90713 70.8621 3.29015 71.0461 3.70442C71.3993 4.49977 70.716 5.29 69.8457 5.29C69.2166 5.29 68.6896 4.85699 68.3549 4.3243C68.0984 3.91592 67.7659 3.57427 67.3575 3.29935C66.6738 2.81675 65.8357 2.57548 64.8442 2.57548C63.9592 2.57548 63.1815 2.78327 62.5113 3.19877C61.8544 3.61435 61.3452 4.20416 60.9828 4.96829C60.6213 5.73243 60.4401 6.64395 60.4401 7.70295C60.4401 8.72177 60.6213 9.61995 60.9828 10.3974C61.3452 11.1616 61.8544 11.7581 62.5113 12.187C63.1815 12.6026 63.9592 12.8104 64.8442 12.8104C65.8492 12.8104 66.7073 12.5691 67.4179 12.0865C67.842 11.8038 68.1831 11.4636 68.4416 11.0659C68.773 10.5559 69.2832 10.136 69.8914 10.136C70.7491 10.136 71.4074 10.9279 71.0334 11.6997C70.8387 12.1014 70.5986 12.4783 70.3128 12.8305C69.6963 13.608 68.9128 14.2112 67.9606 14.6402C67.0219 15.0691 65.97 15.2836 64.8039 15.2836ZM78.136 14.2133C77.9596 14.7103 77.4894 15.0424 76.962 15.0424C76.0986 15.0424 75.497 14.1854 75.7903 13.3734L80.0486 1.58221C80.3171 0.838846 81.0226 0.343479 81.813 0.343479C82.6034 0.343479 83.3089 0.838848 83.5774 1.58221L87.8231 13.3386C88.1225 14.1676 87.5084 15.0424 86.627 15.0424C86.0861 15.0424 85.6044 14.7003 85.4262 14.1897L84.9331 12.7768C84.6963 12.0985 84.0564 11.6441 83.3379 11.6441H80.2501C79.5295 11.6441 78.887 12.0978 78.646 12.7768L78.136 14.2133ZM81.4808 4.72703L80.4628 7.58769C80.1358 8.50669 80.8172 9.47248 81.7927 9.47248C82.7682 9.47248 83.4497 8.50652 83.1225 7.58749L82.1041 4.72703C82.0504 4.52596 81.99 4.32487 81.9237 4.1238C81.8952 4.03834 81.6889 4.03781 81.662 4.1238C81.6083 4.32487 81.5479 4.52596 81.4808 4.72703Z" fill="white"/>
</svg>
