<svg width="88" height="6" viewBox="0 0 88 6" fill="none" xmlns="http://www.w3.org/2000/svg">
<path id="Vector" d="M2.4306 0.692178V5.04798H1.59858V0.692178H2.4306ZM0.207031 1.06253V0.295737H3.82213V1.06253H0.207031ZM6.94584 5.04798H6.15296V0.210938H6.95236V2.25258C7.05238 2.09604 7.19081 1.97283 7.36838 1.88151C7.55102 1.78656 7.75902 1.73873 7.99312 1.73873C8.38739 1.73873 8.68599 1.85832 8.88965 2.09604C9.09765 2.33448 9.20202 2.6599 9.20202 3.07156V5.04798H8.40912V3.26C8.40912 3.07808 8.38087 2.92879 8.32434 2.81138C8.2678 2.69469 8.19026 2.60772 8.09024 2.55119C7.99095 2.49103 7.87353 2.46059 7.73945 2.46059C7.57421 2.46059 7.43143 2.49755 7.3104 2.57075C7.19299 2.64033 7.10239 2.73817 7.03716 2.86356C6.97628 2.98894 6.94584 3.13244 6.94584 3.29262V5.04798ZM11.793 5.04798V1.83657H12.5859V5.04798H11.793ZM12.1829 1.19299C12.0489 1.19299 11.9336 1.14733 11.8387 1.05601C11.7474 0.961063 11.7024 0.845827 11.7024 0.711747C11.7024 0.577667 11.7474 0.464608 11.8387 0.373288C11.9336 0.282693 12.0489 0.237031 12.1829 0.237031C12.3177 0.237031 12.4301 0.282693 12.5214 0.373288C12.6164 0.464608 12.6642 0.577667 12.6642 0.711747C12.6642 0.845827 12.6164 0.961063 12.5214 1.05601C12.4301 1.14733 12.3177 1.19299 12.1829 1.19299ZM16.0104 5.04798H15.2175V1.83657H15.9524L16.0169 2.25258C16.1169 2.09241 16.2575 1.96631 16.4394 1.87571C16.6264 1.78439 16.8279 1.73873 17.0446 1.73873C17.4476 1.73873 17.7505 1.85832 17.9542 2.09604C18.1629 2.33448 18.2666 2.6599 18.2666 3.07156V5.04798H17.4737V3.26C17.4737 2.99111 17.4128 2.79181 17.2918 2.66207C17.17 2.52799 17.0055 2.46059 16.7975 2.46059C16.5503 2.46059 16.3576 2.53814 16.2191 2.69469C16.08 2.85051 16.0104 3.05852 16.0104 3.3187V5.04798ZM21.6577 5.04798H20.8706V0.210938H21.6577V3.18173L22.9057 1.83657H23.9001L22.6782 3.1107L23.874 5.04798H22.9645L22.1252 3.69558L21.6577 4.18334V5.04798ZM29.7322 5.04798V1.83657H30.5251V5.04798H29.7322ZM30.1222 1.19299C29.9874 1.19299 29.8728 1.14733 29.7772 1.05601C29.6866 0.961063 29.6409 0.845827 29.6409 0.711747C29.6409 0.577667 29.6866 0.464608 29.7772 0.373288C29.8728 0.282693 29.9874 0.237031 30.1222 0.237031C30.2562 0.237031 30.3693 0.282693 30.4599 0.373288C30.5556 0.464608 30.6034 0.577667 30.6034 0.711747C30.6034 0.845827 30.5556 0.961063 30.4599 1.05601C30.3693 1.14733 30.2562 1.19299 30.1222 1.19299ZM32.8378 1.83657H34.8664V2.49973H32.8378V1.83657ZM34.2489 5.04798H33.4553V0.834955H34.2489V5.04798ZM37.6307 4.98927L37.7089 4.9697C37.6741 5.00014 37.635 5.02406 37.5923 5.04145C37.5531 5.0545 37.5053 5.06102 37.4488 5.06102C37.3234 5.06102 37.2147 5.01971 37.1241 4.93709C37.0327 4.85084 36.9871 4.74213 36.9871 4.6124C36.9871 4.45658 37.0327 4.33047 37.1241 4.23552C37.2147 4.13985 37.3342 4.09202 37.4814 4.09202C37.6459 4.09202 37.7807 4.1529 37.8843 4.27394C37.9887 4.3957 38.0409 4.55804 38.0409 4.7617C38.0409 4.93927 38.0017 5.10234 37.9235 5.24946C37.8452 5.40094 37.7372 5.52487 37.5988 5.61981C37.4596 5.71548 37.3016 5.77419 37.1241 5.7952V5.47704C37.2712 5.45095 37.3929 5.39441 37.4879 5.30817C37.5836 5.22555 37.6307 5.11973 37.6307 4.98927ZM46.3749 5.12625C45.911 5.12625 45.5081 5.02624 45.1653 4.82693C44.8275 4.62327 44.563 4.33916 44.3724 3.97533C44.1861 3.60716 44.0926 3.17375 44.0926 2.67512C44.0926 2.18083 44.1883 1.7496 44.3789 1.38143C44.5739 1.01252 44.8471 0.726971 45.1979 0.523314C45.5494 0.319657 45.9545 0.217462 46.414 0.217462C46.7909 0.217462 47.1286 0.287041 47.428 0.42547C47.7266 0.564624 47.9737 0.759583 48.1687 1.01107C48.3643 1.25749 48.4875 1.55247 48.5397 1.89456H47.662C47.5794 1.6177 47.4258 1.40317 47.2004 1.25097C46.9793 1.09515 46.7083 1.01687 46.3879 1.01687C46.1016 1.01687 45.8502 1.08428 45.6334 1.21908C45.4211 1.35316 45.2566 1.54377 45.1392 1.79091C45.0225 2.03805 44.9638 2.33231 44.9638 2.67512C44.9638 3.00416 45.0225 3.29479 45.1392 3.54628C45.2566 3.79342 45.4211 3.98621 45.6334 4.12464C45.8502 4.25944 46.1016 4.32612 46.3879 4.32612C46.7126 4.32612 46.9902 4.24857 47.2199 4.09202C47.454 3.9362 47.6099 3.72602 47.6881 3.46148H48.5528C48.4919 3.79125 48.36 4.08115 48.1556 4.33264C47.9563 4.58413 47.7034 4.77909 47.3953 4.91752C47.0917 5.05668 46.7518 5.12625 46.3749 5.12625ZM53.0093 1.82353V2.55771H52.7165C52.4259 2.55771 52.1983 2.63598 52.0338 2.79181C51.8693 2.94401 51.7867 3.17593 51.7867 3.48757V5.04798H50.9938V1.8431H51.741L51.8062 2.50625H51.7279C51.7714 2.29389 51.8736 2.11996 52.0338 1.98588C52.194 1.85179 52.402 1.78439 52.6578 1.78439C52.7143 1.78439 52.7709 1.78656 52.8267 1.79091C52.8832 1.79526 52.9441 1.80614 53.0093 1.82353ZM56.6867 5.13205C56.37 5.13205 56.0888 5.06102 55.8417 4.91752C55.5989 4.7704 55.4083 4.57109 55.2691 4.3196C55.1307 4.06376 55.0611 3.77168 55.0611 3.44191C55.0611 3.10852 55.1285 2.81355 55.2626 2.55771C55.3974 2.3026 55.5858 2.10256 55.8286 1.95978C56.0714 1.81266 56.3483 1.73873 56.6606 1.73873C56.9853 1.73873 57.2651 1.80831 57.4992 1.94674C57.7333 2.08154 57.913 2.26998 58.0391 2.51277C58.1689 2.75484 58.2341 3.04547 58.2341 3.38394V3.62383L55.4771 3.63035L55.4902 3.12375H57.447C57.447 2.90269 57.376 2.72513 57.2325 2.59032C57.0941 2.45624 56.9056 2.38884 56.6672 2.38884C56.4809 2.38884 56.3222 2.42797 56.1925 2.50625C56.0671 2.5838 55.9714 2.70121 55.9062 2.85703C55.8417 3.01286 55.8091 3.20347 55.8091 3.42887C55.8091 3.77603 55.8823 4.03839 56.0301 4.21595C56.1816 4.39352 56.4048 4.48194 56.6998 4.48194C56.9165 4.48194 57.0941 4.44136 57.2325 4.35874C57.376 4.27611 57.4688 4.15943 57.5122 4.00795H58.2471C58.1776 4.35874 58.0044 4.63414 57.7268 4.83345C57.4535 5.03276 57.1071 5.13205 56.6867 5.13205ZM61.6042 5.13205C61.2665 5.13205 60.9976 5.04145 60.7983 4.85954C60.6033 4.67328 60.5055 4.43049 60.5055 4.13116C60.5055 3.83618 60.6077 3.60281 60.8113 3.42887C61.0194 3.2513 61.3143 3.14766 61.6956 3.11722L62.6573 3.03895V2.9672C62.6573 2.82007 62.629 2.70338 62.5732 2.61641C62.521 2.52582 62.445 2.46059 62.3457 2.42145C62.2456 2.37797 62.129 2.35623 61.9942 2.35623C61.7608 2.35623 61.5803 2.40406 61.4549 2.49973C61.3288 2.59032 61.2665 2.72078 61.2665 2.88965H60.5903C60.5903 2.65555 60.649 2.45407 60.7657 2.2852C60.8874 2.11126 61.0563 1.97717 61.273 1.88151C61.4941 1.78656 61.7477 1.73873 62.0333 1.73873C62.3239 1.73873 62.5732 1.79092 62.7812 1.89456C62.9892 1.99457 63.1494 2.14605 63.2625 2.3497C63.3748 2.54901 63.4313 2.79833 63.4313 3.09765V5.04798H62.7356L62.6769 4.57326C62.608 4.73778 62.4732 4.87259 62.2739 4.97623C62.0789 5.08059 61.8557 5.13205 61.6042 5.13205ZM61.8579 4.53413C62.105 4.53413 62.3 4.46527 62.4428 4.32612C62.5906 4.18769 62.6638 3.99491 62.6638 3.74776V3.57889L61.9942 3.63035C61.7477 3.65209 61.5716 3.70428 61.468 3.7869C61.3636 3.86445 61.3121 3.96882 61.3121 4.09855C61.3121 4.24205 61.3593 4.35004 61.4549 4.42396C61.5499 4.49716 61.6847 4.53413 61.8579 4.53413ZM65.6592 1.83657H67.6879V2.49973H65.6592V1.83657ZM67.0704 5.04798H66.2767V0.834955H67.0704V5.04798ZM71.4044 5.13205C71.0877 5.13205 70.8058 5.06102 70.5586 4.91752C70.3165 4.7704 70.1252 4.57109 69.9868 4.3196C69.8484 4.06376 69.7788 3.77168 69.7788 3.44191C69.7788 3.10852 69.8462 2.81355 69.9803 2.55771C70.1143 2.3026 70.3035 2.10256 70.5456 1.95978C70.7884 1.81266 71.066 1.73873 71.3783 1.73873C71.703 1.73873 71.9828 1.80831 72.2169 1.94674C72.451 2.08154 72.6307 2.26998 72.7561 2.51277C72.8866 2.75484 72.951 3.04547 72.951 3.38394V3.62383L70.1948 3.63035L70.2078 3.12375H72.1647C72.1647 2.90269 72.0929 2.72513 71.9502 2.59032C71.8117 2.45624 71.6233 2.38884 71.3848 2.38884C71.1979 2.38884 71.0399 2.42797 70.9101 2.50625C70.784 2.5838 70.6891 2.70121 70.6238 2.85703C70.5586 3.01286 70.5267 3.20347 70.5267 3.42887C70.5267 3.77603 70.5999 4.03839 70.7478 4.21595C70.8993 4.39352 71.1225 4.48194 71.4167 4.48194C71.6334 4.48194 71.8117 4.44136 71.9502 4.35874C72.0929 4.27611 72.1864 4.15943 72.2299 4.00795H72.9641C72.8952 4.35874 72.7213 4.63414 72.4444 4.83345C72.1712 5.03276 71.8248 5.13205 71.4044 5.13205ZM78.9622 5.04798V1.83657H79.7551V5.04798H78.9622ZM79.3521 1.19299C79.218 1.19299 79.1028 1.14733 79.0079 1.05601C78.9165 0.961063 78.8709 0.845827 78.8709 0.711747C78.8709 0.577667 78.9165 0.464608 79.0079 0.373288C79.1028 0.282693 79.218 0.237031 79.3521 0.237031C79.4862 0.237031 79.5993 0.282693 79.6906 0.373288C79.7855 0.464608 79.8334 0.577667 79.8334 0.711747C79.8334 0.845827 79.7855 0.961063 79.6906 1.05601C79.5993 1.14733 79.4862 1.19299 79.3521 1.19299ZM82.0678 1.83657H84.0964V2.49973H82.0678V1.83657ZM83.4789 5.04798H82.686V0.834955H83.4789V5.04798ZM86.7439 5.12625C86.6011 5.12625 86.4779 5.07625 86.3736 4.97623C86.2692 4.87694 86.2178 4.75518 86.2178 4.6124C86.2178 4.46962 86.2692 4.34786 86.3736 4.24857C86.4779 4.14421 86.6011 4.09202 86.7439 4.09202C86.8874 4.09202 87.0106 4.14421 87.115 4.24857C87.2186 4.34786 87.2708 4.46962 87.2708 4.6124C87.2708 4.75518 87.2186 4.87694 87.115 4.97623C87.0106 5.07625 86.8874 5.12625 86.7439 5.12625Z" fill="white"/>
</svg>
